<svg width="14" height="16" viewBox="0 0 14 16" fill="none" xmlns="http://www.w3.org/2000/svg">
<path d="M11.2084 14.9C10.3918 15.6917 9.50012 15.5667 8.64178 15.1917C7.73345 14.8083 6.90012 14.7917 5.94178 15.1917C4.74178 15.7083 4.10845 15.5583 3.39178 14.9C-0.674884 10.7083 -0.0748835 4.325 4.54178 4.09167C5.66678 4.15 6.45012 4.70833 7.10845 4.75833C8.09178 4.55833 9.03345 3.98333 10.0834 4.05833C11.3418 4.15833 12.2918 4.65833 12.9168 5.55833C10.3168 7.11667 10.9334 10.5417 13.3168 11.5C12.8418 12.75 12.2251 13.9917 11.2001 14.9083L11.2084 14.9ZM7.02512 4.04167C6.90012 2.18333 8.40845 0.65 10.1418 0.5C10.3834 2.65 8.19178 4.25 7.02512 4.04167Z" fill="#040505"/>
</svg>
